# Blender v2.93.5 OBJ File: 'modelsforgame.blend'
# www.blender.org
mtllib Connector.mtl
o Cube.004
v 0.500000 1.478663 -0.500000
v 0.500000 0.001337 -0.500000
v 0.500000 1.478663 0.500000
v 0.500000 0.001337 0.500000
v -0.500000 1.478663 -0.500000
v -0.500000 0.001337 -0.500000
v -0.500000 1.478663 0.500000
v -0.500000 0.001337 0.500000
v -0.500000 1.305455 0.342864
v -0.500000 1.305455 -0.342864
v -0.500000 0.001337 0.342864
v -0.500000 0.001337 -0.342864
v 0.500000 0.001337 0.342864
v 0.500000 0.001337 -0.342864
v 0.500000 1.305455 0.342864
v 0.500000 1.305455 -0.342864
vt 1.000566 0.518602
vt 0.752116 0.757751
vt 0.741265 0.513952
vt 0.499016 0.998450
vt 0.499016 0.748450
vt 0.736614 0.000000
vt 0.738164 0.296506
vt 0.707547 0.046592
vt 0.249016 0.759301
vt 0.499016 0.710871
vt 0.249016 0.509301
vt 0.499016 0.546880
vt 0.249016 0.548585
vt 0.714236 0.551574
vt 0.499016 0.509301
vt 0.488164 0.296506
vt 0.570739 0.958710
vt 0.432446 0.750000
vt 0.432446 0.958710
vt 0.375000 0.500000
vt 0.375000 0.750000
vt 0.375000 0.500000
vt 0.570739 0.291290
vt 0.432446 0.500000
vt 0.570739 0.500000
vt 0.994365 0.759301
vt 0.753666 1.000000
vt 0.486858 0.046592
vt 0.486614 0.000000
vt 0.708610 0.249914
vt 0.487921 0.249914
vt 0.249016 0.720017
vt 0.721068 0.718493
vt 0.570739 0.750000
vt 0.375000 0.750000
vt 0.432446 0.291290
vn 0.0000 1.0000 0.0000
vn 0.0000 0.0000 1.0000
vn -1.0000 0.0000 0.0000
vn 0.0000 -1.0000 0.0000
vn 1.0000 0.0000 0.0000
vn 0.0000 0.0000 -1.0000
g Cube.004_Cube.004_Material.004
usemtl Material.004
s off
f 5/1/1 3/2/1 1/3/1
f 3/2/2 8/4/2 4/5/2
f 7/6/3 5/7/3 9/8/3
f 8/9/4 13/10/4 4/5/4
f 6/11/4 14/12/4 12/13/4
f 1/3/5 3/2/5 16/14/5
f 5/7/6 2/15/6 6/16/6
f 11/17/6 15/18/6 13/19/6
f 16/20/4 9/21/4 10/22/4
f 12/23/2 16/24/2 10/25/2
f 5/1/1 7/26/1 3/2/1
f 3/2/2 7/27/2 8/4/2
f 11/28/3 8/29/3 9/8/3
f 8/29/3 7/6/3 9/8/3
f 5/7/3 6/16/3 10/30/3
f 6/16/3 12/31/3 10/30/3
f 5/7/3 10/30/3 9/8/3
f 8/9/4 11/32/4 13/10/4
f 6/11/4 2/15/4 14/12/4
f 14/12/5 2/15/5 16/14/5
f 2/15/5 1/3/5 16/14/5
f 3/2/5 4/5/5 15/33/5
f 4/5/5 13/10/5 15/33/5
f 3/2/5 15/33/5 16/14/5
f 5/7/6 1/3/6 2/15/6
f 11/17/6 9/34/6 15/18/6
f 16/20/4 15/35/4 9/21/4
f 12/23/2 14/36/2 16/24/2
